<svg xmlns="http://www.w3.org/2000/svg">
  <defs>
    <g id="facebook">
      <path d="M16.2656 13.375C16.2656 9.36133 13.0137 6.10938 9 6.10938C4.98633 6.10938 1.73438 9.36133 1.73438 13.375C1.73438 17.0078 4.37109 20.0254 7.85742 20.5527V15.4844H6.01172V13.375H7.85742V11.793C7.85742 9.97656 8.94141 8.95117 10.582 8.95117C11.4023 8.95117 12.2227 9.09766 12.2227 9.09766V10.8848H11.3145C10.4062 10.8848 10.1133 11.4414 10.1133 12.0273V13.375H12.1348L11.8125 15.4844H10.1133V20.5527C13.5996 20.0254 16.2656 17.0078 16.2656 13.375Z" fill="#555555"/>
    </g>
    <g id="twitter">
      <path d="M14.9473 10.3281C15.5332 9.88867 16.0605 9.36133 16.4707 8.74609C15.9434 8.98047 15.3281 9.15625 14.7129 9.21484C15.3574 8.83398 15.8262 8.24805 16.0605 7.51562C15.4746 7.86719 14.8008 8.13086 14.127 8.27734C13.541 7.66211 12.75 7.31055 11.8711 7.31055C10.1719 7.31055 8.79492 8.6875 8.79492 10.3867C8.79492 10.6211 8.82422 10.8555 8.88281 11.0898C6.33398 10.9434 4.04883 9.71289 2.52539 7.86719C2.26172 8.30664 2.11523 8.83398 2.11523 9.41992C2.11523 10.4746 2.64258 11.4121 3.49219 11.9688C2.99414 11.9395 2.49609 11.8223 2.08594 11.5879V11.6172C2.08594 13.1113 3.14062 14.3418 4.54688 14.6348C4.3125 14.6934 4.01953 14.752 3.75586 14.752C3.55078 14.752 3.375 14.7227 3.16992 14.6934C3.55078 15.9238 4.69336 16.8027 6.04102 16.832C4.98633 17.6523 3.66797 18.1504 2.23242 18.1504C1.96875 18.1504 1.73438 18.1211 1.5 18.0918C2.84766 18.9707 4.45898 19.4688 6.2168 19.4688C11.8711 19.4688 14.9473 14.8105 14.9473 10.7383C14.9473 10.5918 14.9473 10.4746 14.9473 10.3281Z" fill="#555555"/>
    </g>
    <g id="linkedin">
      <path d="M4.86719 19V10.2402H2.14258V19H4.86719ZM3.49023 9.06836C4.36914 9.06836 5.07227 8.33594 5.07227 7.45703C5.07227 6.60742 4.36914 5.9043 3.49023 5.9043C2.64062 5.9043 1.9375 6.60742 1.9375 7.45703C1.9375 8.33594 2.64062 9.06836 3.49023 9.06836ZM15.0332 19H15.0625V14.1953C15.0625 11.8516 14.5352 10.0352 11.7812 10.0352C10.4629 10.0352 9.58398 10.7676 9.20312 11.4414H9.17383V10.2402H6.56641V19H9.29102V14.6641C9.29102 13.5215 9.49609 12.4375 10.9023 12.4375C12.3086 12.4375 12.3379 13.7266 12.3379 14.752V19H15.0332Z" fill="#555555"/>
    </g>
    <g id="vimeo">
      <path d="M14.0332 10.3867C14.1211 8.6875 13.4766 7.80859 12.1289 7.7793C10.3125 7.7207 9.08203 8.74609 8.4375 10.8555C9.25781 10.5039 10.4297 10.416 10.3125 11.7637C10.2539 12.2031 9.96094 12.877 9.4043 13.7266C7.88086 16.1582 7.5 15.3379 6.67969 10.0352C6.44531 8.54102 5.80078 7.83789 4.77539 7.92578C3.86719 8.01367 2.43164 9.47852 0.9375 10.8262L1.55273 11.6172C2.13867 11.207 2.46094 11.002 2.57812 11.002C3.42773 11.002 3.86719 13.1992 4.89258 17.0078C5.41992 18.4141 6.06445 19.1172 6.82617 19.1172C8.08594 19.1172 9.58008 17.9453 11.3672 15.6309C13.0957 13.4043 13.9746 11.6758 14.0332 10.3867Z" fill="#555555"/>
    </g>
  </defs>
</svg>  